<?xml version="1.0" standalone="no"?>
<!DOCTYPE svg PUBLIC "-//W3C//DTD SVG 20010904//EN"
 "http://www.w3.org/TR/2001/REC-SVG-20010904/DTD/svg10.dtd">
<svg version="1.0" xmlns="http://www.w3.org/2000/svg"
 width="16.000000pt" height="16.000000pt" viewBox="0 0 77.000000 77.000000"
 preserveAspectRatio="xMidYMid meet">

<g transform="translate(0.000000,77.000000) scale(0.100000,-0.100000)"
fill="#d00000" stroke="none">
<path d="M289 757 c-78 -22 -151 -70 -201 -132 -63 -77 -83 -138 -83 -245 0
-74 4 -93 32 -152 136 -288 524 -302 684 -24 106 185 23 434 -176 527 -76 36
-183 47 -256 26z m217 -132 c158 -77 197 -284 80 -422 -67 -79 -209 -110 -306
-66 -108 48 -164 133 -164 248 0 206 203 331 390 240z"/>
<path d="M170 505 c0 -32 2 -35 30 -35 17 0 30 -2 30 -3 0 -2 14 -71 30 -152
17 -81 30 -150 30 -152 0 -1 20 -3 44 -3 l44 0 12 68 c7 37 15 71 18 77 3 5
13 -24 22 -65 15 -74 16 -75 48 -78 21 -2 34 2 37 11 3 7 19 76 35 153 16 76
33 140 39 142 6 2 11 19 11 38 0 33 -1 34 -40 34 l-40 0 0 -46 c0 -55 -21
-174 -30 -174 -6 0 -30 111 -30 139 0 6 7 11 16 11 11 0 14 8 12 33 l-3 32
-72 3 -73 3 0 -35 c0 -19 5 -36 12 -38 9 -3 9 -21 -1 -77 -7 -40 -15 -70 -18
-67 -13 12 -30 130 -25 171 l5 45 -72 0 -71 0 0 -35z"/>
</g>
</svg>
