<?xml version="1.0" standalone="no"?>
<!DOCTYPE svg PUBLIC "-//W3C//DTD SVG 20010904//EN"
 "http://www.w3.org/TR/2001/REC-SVG-20010904/DTD/svg10.dtd">
<svg version="1.0" xmlns="http://www.w3.org/2000/svg"
 width="16.000000pt" height="86.000000pt" viewBox="0 0 82.000000 86.000000"
 preserveAspectRatio="xMidYMid meet">

<g transform="translate(0.000000,86.000000) scale(0.100000,-0.100000)"
fill="#75495e" stroke="none">
<path d="M216 647 c-104 -111 -191 -207 -193 -213 -4 -12 385 -427 396 -422 4
2 96 97 205 211 l198 208 -164 171 c-90 94 -178 188 -196 209 -19 22 -39 39
-45 38 -7 0 -97 -92 -201 -202z m303 -9 c53 -57 119 -127 145 -156 l49 -52
-58 -63 c-32 -34 -99 -104 -149 -156 l-91 -93 -147 153 c-81 85 -146 157 -145
161 3 9 287 308 294 308 2 0 48 -46 102 -102z"/>
<path d="M264 545 c-19 -48 -19 -48 26 -25 21 11 53 20 70 20 l31 0 -3 -152
c-3 -150 -3 -153 -25 -156 -13 -2 -23 -8 -23 -13 0 -5 34 -9 75 -9 41 0 75 4
75 9 0 5 -10 11 -22 13 -23 3 -23 6 -26 156 l-3 152 34 0 c18 0 49 -9 70 -19
41 -21 42 -21 25 26 l-12 33 -139 0 -138 0 -15 -35z"/>
</g>
</svg>
