<?xml version="1.0" encoding="UTF-8"?>
<svg version="1.1" xmlns="http://www.w3.org/2000/svg" width="16" height="77" viewBox="0 0 77.000000 77.000000">
<path d="M0 0 C8.03199039 5.01560972 13.87511936 10.97976473 17.68359375 19.67578125 C18.04710938 20.38863281 18.410625 21.10148437 18.78515625 21.8359375 C21.57804442 30.6638927 21.30031701 44.21384335 17.13671875 52.51171875 C9.88828494 63.30642931 1.32355397 70.47519166 -11.46484375 73.2109375 C-23.05499235 75.10029049 -32.60680442 72.02606712 -42.31640625 65.67578125 C-49.57518744 60.24904426 -53.49419297 52.1424211 -56.31640625 43.67578125 C-57.30173935 29.95149876 -56.26425943 19.34255951 -47.25390625 8.30078125 C-35.34963372 -4.12367798 -15.46939484 -7.61669233 0 0 Z M-40.75390625 20.49609375 C-45.11636775 26.58172754 -45.07336815 33.4145541 -44.31640625 40.67578125 C-42.45449384 47.28808639 -38.9429014 53.32810281 -33.08984375 57.1171875 C-25.66284818 61.15259841 -19.37272546 62.7186718 -11.12890625 60.48828125 C-2.90459271 57.66196917 2.40776955 53.06487077 6.43359375 45.30078125 C8.93951733 38.03360286 9.34042663 31.90827074 6.68359375 24.67578125 C3.27180097 17.71387976 -1.41516089 13.18914252 -8.31640625 9.67578125 C-21.33201475 5.39015406 -32.48248554 10.32358037 -40.75390625 20.49609375 Z " fill="#E68F61" transform="translate(57.31640625,3.32421875)"/>
<path d="M0 0 C4.33974495 2.29269544 7.27513537 4.91270306 10 9 C10 9.99 10 10.98 10 12 C7.8125 12.3125 7.8125 12.3125 5 12 C2.4375 9.625 2.4375 9.625 0 7 C-2.60552836 5.15091536 -3.70650093 4.98751068 -6.9375 5.125 C-11.36345014 6.38955718 -14.02744859 8.28645704 -16.3125 12.3125 C-17.85125803 18.32764504 -17.23464793 22.89610865 -14.26171875 28.2578125 C-12.2011741 31.10302276 -10.35901093 32.07791857 -7 33 C-3.32103329 32.35381656 -3.32103329 32.35381656 0 31 C0.99 30.67 1.98 30.34 3 30 C4.20882096 27.99983534 4.20882096 27.99983534 5 26 C6.32 26.66 7.64 27.32 9 28 C7.64319732 32.44044513 5.86646942 34.45164515 2 37 C-2.87696498 39.27591699 -6.88551823 39.36317851 -12 38 C-17.42913462 35.55156674 -19.70072305 31.97518468 -22.078125 26.7109375 C-24.30183098 20.17173431 -23.69763606 14.87512271 -20.875 8.625 C-16.17254004 0.11515057 -9.24557662 -2.04225922 0 0 Z " fill="#E68F61" transform="translate(44,18)"/>
</svg>
