<?xml version="1.0" encoding="UTF-8"?>
<svg version="1.1" xmlns="http://www.w3.org/2000/svg" width="16" height="30" viewBox="0 0 77.000000 30.000000">
<path d="M0 0 C2.77527757 0.08491187 4.58066252 0.29519757 7.1875 1.3125 C9.49960278 4.52933865 8.88001172 7.42357127 8.625 11.3125 C9.615 11.3125 10.605 11.3125 11.625 11.3125 C11.625 9.3325 11.625 7.3525 11.625 5.3125 C17.565 5.3125 23.505 5.3125 29.625 5.3125 C29.625 12.2425 29.625 19.1725 29.625 26.3125 C23.685 26.3125 17.745 26.3125 11.625 26.3125 C11.625 24.0025 11.625 21.6925 11.625 19.3125 C10.1863506 19.37282073 8.74888098 19.46170133 7.3125 19.5625 C6.51199219 19.60890625 5.71148437 19.6553125 4.88671875 19.703125 C2.05459773 20.21697772 2.05459773 20.21697772 -0.375 24.3125 C2.925 24.6425 6.225 24.9725 9.625 25.3125 C9.13 27.7875 9.13 27.7875 8.625 30.3125 C3.345 30.3125 -1.935 30.3125 -7.375 30.3125 C-7.705 28.6625 -8.035 27.0125 -8.375 25.3125 C-6.4375 22.5 -6.4375 22.5 -4.375 20.3125 C-6.025 19.9825 -7.675 19.6525 -9.375 19.3125 C-9.2925 20.22 -9.21 21.1275 -9.125 22.0625 C-9.375 25.3125 -9.375 25.3125 -11.1875 27.625 C-14.7756234 30.39298091 -17.67517594 30.42661558 -22.0625 30.375 C-23.05636719 30.36597656 -24.05023437 30.35695313 -25.07421875 30.34765625 C-26.21310547 30.33025391 -26.21310547 30.33025391 -27.375 30.3125 C-27.375 27.0125 -27.375 23.7125 -27.375 20.3125 C-26.385 20.3125 -25.395 20.3125 -24.375 20.3125 C-24.16875 21.116875 -23.9625 21.92125 -23.75 22.75 C-22.58993674 25.62952301 -22.58993674 25.62952301 -19.375 26.25 C-18.385 26.270625 -17.395 26.29125 -16.375 26.3125 C-15.715 25.6525 -15.055 24.9925 -14.375 24.3125 C-14.375 22.6625 -14.375 21.0125 -14.375 19.3125 C-18.995 19.3125 -23.615 19.3125 -28.375 19.3125 C-28.375 21.2925 -28.375 23.2725 -28.375 25.3125 C-34.315 25.3125 -40.255 25.3125 -46.375 25.3125 C-46.375 18.7125 -46.375 12.1125 -46.375 5.3125 C-40.435 5.3125 -34.495 5.3125 -28.375 5.3125 C-28.375 7.2925 -28.375 9.2725 -28.375 11.3125 C-27.715 11.3125 -27.055 11.3125 -26.375 11.3125 C-26.478125 10.405 -26.58125 9.4975 -26.6875 8.5625 C-26.375 5.3125 -26.375 5.3125 -24.5625 2.9375 C-19.88897764 0.55491997 -15.52332988 0.98791178 -10.375 1.3125 C-10.375 4.2825 -10.375 7.2525 -10.375 10.3125 C-11.035 10.3125 -11.695 10.3125 -12.375 10.3125 C-12.808125 9.4875 -13.24125 8.6625 -13.6875 7.8125 C-14.244375 6.9875 -14.80125 6.1625 -15.375 5.3125 C-18.00194422 4.89469121 -18.00194422 4.89469121 -20.375 5.3125 C-20.96570014 7.25853274 -20.96570014 7.25853274 -21.375 9.3125 C-20.34785339 10.5630313 -20.34785339 10.5630313 -18.15014648 10.42602539 C-16.71264038 10.41817017 -16.71264038 10.41817017 -15.24609375 10.41015625 C-14.21162109 10.40693359 -13.17714844 10.40371094 -12.11132812 10.40039062 C-11.02271484 10.39201172 -9.93410156 10.38363281 -8.8125 10.375 C-7.72001953 10.37048828 -6.62753906 10.36597656 -5.50195312 10.36132812 C-2.79291505 10.34949826 -0.08398401 10.33301543 2.625 10.3125 C2.955 8.6625 3.285 7.0125 3.625 5.3125 C0.65434491 5.65477572 0.65434491 5.65477572 -2.375 6.3125 C-2.705 6.9725 -3.035 7.6325 -3.375 8.3125 C-5.025 8.3125 -6.675 8.3125 -8.375 8.3125 C-5.85398734 0.02917269 -5.85398734 0.02917269 0 0 Z " fill="#000100" transform="translate(47.375,-0.3125)"/>
<path d="M0 0 C5.94 0 11.88 0 18 0 C18 6.93 18 13.86 18 21 C12.06 21 6.12 21 0 21 C0 18.69 0 16.38 0 14 C-2.97 14 -5.94 14 -9 14 C-8.26829419 12.65654015 -7.51394247 11.32539416 -6.75 10 C-6.33234375 9.2575 -5.9146875 8.515 -5.484375 7.75 C-4.99453125 7.1725 -4.5046875 6.595 -4 6 C-2.68 6 -1.36 6 0 6 C0 4.02 0 2.04 0 0 Z " fill="#224F36" transform="translate(59,5)"/>
<path d="M0 0 C5.94 0 11.88 0 18 0 C18 1.98 18 3.96 18 6 C18.99 6 19.98 6 21 6 C22 7 23 8 24 9 C26.28830664 10.42827193 28.63181997 11.70420338 31 13 C31 13.33 31 13.66 31 14 C26.71 14 22.42 14 18 14 C18 15.98 18 17.96 18 20 C12.06 20 6.12 20 0 20 C0 13.4 0 6.8 0 0 Z " fill="#224F36" transform="translate(1,5)"/>
<path d="M0 0 C2.77527757 0.08491187 4.58066252 0.29519757 7.1875 1.3125 C8.95862488 3.77667374 9.4115649 5.81672457 9.29296875 8.84375 C7.78664067 14.41099763 3.70038009 20.23711991 -0.375 24.3125 C2.925 24.6425 6.225 24.9725 9.625 25.3125 C9.295 26.9625 8.965 28.6125 8.625 30.3125 C3.345 30.3125 -1.935 30.3125 -7.375 30.3125 C-7.705 28.6625 -8.035 27.0125 -8.375 25.3125 C-6.83472082 23.15253403 -5.37656689 21.39683101 -3.5625 19.5 C0.55147527 14.93519749 2.91221886 11.48993651 3.625 5.3125 C0.65434491 5.65477572 0.65434491 5.65477572 -2.375 6.3125 C-2.705 6.9725 -3.035 7.6325 -3.375 8.3125 C-5.025 8.3125 -6.675 8.3125 -8.375 8.3125 C-5.85398734 0.02917269 -5.85398734 0.02917269 0 0 Z " fill="#000000" transform="translate(47.375,-0.3125)"/>
<path d="M0 0 C7.59 0 15.18 0 23 0 C19.875 6.25 19.875 6.25 18 8 C14.83586154 8.45931042 13.00907851 8.70349773 10 8 C7.3125 5.625 7.3125 5.625 5 3 C2.33466965 1.680982 2.33466965 1.680982 0 1 C0 0.67 0 0.34 0 0 Z " fill="#224E35" transform="translate(27,11)"/>
</svg>
