<?xml version="1.0" standalone="no"?>
<!DOCTYPE svg PUBLIC "-//W3C//DTD SVG 20010904//EN"
 "http://www.w3.org/TR/2001/REC-SVG-20010904/DTD/svg10.dtd">
<svg version="1.0" xmlns="http://www.w3.org/2000/svg"
 width="16.000000pt" height="16.000000pt" viewBox="0 0 82.000000 82.000000"
 preserveAspectRatio="xMidYMid meet">

<g transform="translate(0.000000,82.000000) scale(0.100000,-0.100000)"
fill="#c33f3c" stroke="none">
<path d="M360 780 c0 -31 -4 -40 -17 -40 -27 0 -114 -43 -151 -75 -41 -35 -75
-87 -95 -146 -14 -40 -18 -44 -51 -47 l-36 -3 0 -55 0 -54 38 0 c36 0 38 -2
49 -43 15 -54 67 -132 115 -170 20 -16 61 -38 90 -48 50 -16 53 -20 56 -53 l3
-36 55 0 54 0 0 35 c0 25 5 37 18 42 147 50 218 122 258 261 2 6 19 12 39 12
l35 0 0 55 0 55 -38 0 c-36 0 -38 2 -49 43 -27 99 -120 194 -215 218 -47 12
-48 14 -48 51 l0 38 -55 0 -55 0 0 -40z m160 -150 c82 -42 133 -125 133 -215
0 -132 -106 -238 -238 -238 -132 0 -237 104 -238 237 -1 177 188 295 343 216z"/>
<path d="M320 585 c0 -28 4 -35 20 -35 19 0 20 -7 20 -135 0 -128 -1 -135 -20
-135 -16 0 -20 -7 -20 -35 l0 -35 95 0 95 0 0 35 c0 31 -3 35 -25 35 l-25 0 0
135 0 135 25 0 c22 0 25 4 25 35 l0 35 -95 0 -95 0 0 -35z"/>
</g>
</svg>
