<?xml version="1.0" standalone="no"?>
<!DOCTYPE svg PUBLIC "-//W3C//DTD SVG 20010904//EN"
 "http://www.w3.org/TR/2001/REC-SVG-20010904/DTD/svg10.dtd">
<svg version="1.0" xmlns="http://www.w3.org/2000/svg"
 width="16.000000pt" height="16.000000pt" viewBox="0 0 78.000000 77.000000"
 preserveAspectRatio="xMidYMid meet">

<g transform="translate(0.000000,77.000000) scale(0.100000,-0.100000)"
fill="#000000" stroke="none">
<path d="M269 748 c-216 -76 -317 -316 -220 -523 91 -196 321 -275 518 -180
70 35 155 128 184 202 30 80 30 196 -1 276 -54 142 -182 234 -335 243 -66 4
-92 1 -146 -18z m221 -34 c101 -30 172 -92 219 -194 20 -44 25 -70 26 -135 0
-69 -4 -89 -29 -140 -63 -128 -174 -198 -316 -199 -66 -1 -84 3 -142 32 -74
36 -133 95 -169 170 -19 38 -23 64 -23 137 -1 106 18 157 84 229 96 104 218
139 350 100z"/>
<path d="M341 608 c-143 -41 -191 -257 -83 -371 39 -42 75 -57 130 -57 36 0
59 7 86 25 34 23 36 23 36 5 0 -15 7 -20 25 -20 l25 0 0 110 0 110 -90 0 c-83
0 -90 -1 -90 -20 0 -18 7 -20 65 -20 l65 0 0 -32 c-1 -91 -128 -142 -200 -82
-43 37 -62 78 -62 139 -1 69 33 131 85 158 53 27 101 16 149 -34 33 -35 78
-53 78 -31 0 19 -61 92 -87 105 -40 21 -93 27 -132 15z"/>
</g>
</svg>
