<?xml version="1.0" standalone="no"?>
<!DOCTYPE svg PUBLIC "-//W3C//DTD SVG 20010904//EN"
 "http://www.w3.org/TR/2001/REC-SVG-20010904/DTD/svg10.dtd">
<svg version="1.0" xmlns="http://www.w3.org/2000/svg"
 width="16.000000pt" height="16.000000pt" viewBox="0 0 78.000000 77.000000"
 preserveAspectRatio="xMidYMid meet">

<g transform="translate(0.000000,77.000000) scale(0.100000,-0.100000)"
fill="#4a5499" stroke="none">
<path d="M300 754 c-246 -66 -362 -344 -234 -562 128 -217 430 -250 604 -66
207 219 89 578 -209 634 -69 13 -94 12 -161 -6z m177 -109 c63 -19 134 -80
164 -143 32 -64 32 -169 1 -228 -48 -93 -121 -147 -219 -160 -155 -20 -303
115 -303 276 0 66 30 131 85 187 78 77 166 99 272 68z"/>
<path d="M180 500 c0 -27 3 -30 30 -30 17 0 30 -2 30 -3 0 -2 14 -68 30 -145
17 -78 30 -144 30 -147 0 -3 20 -5 44 -5 l44 0 13 70 c7 39 15 73 19 75 4 3
13 -29 20 -70 l13 -75 37 0 36 0 29 142 c15 79 34 148 41 154 8 6 14 23 14 38
0 24 -3 26 -40 26 l-40 0 0 -46 c0 -56 -21 -174 -30 -174 -4 0 -13 35 -20 77
-10 58 -11 78 -2 81 7 2 12 17 12 33 l0 29 -70 0 -70 0 0 -30 c0 -20 5 -30 15
-30 15 0 15 -8 -10 -115 l-11 -50 -17 70 c-9 41 -14 88 -10 113 l6 42 -72 0
-71 0 0 -30z"/>
</g>
</svg>
