<?xml version="1.0" encoding="UTF-8"?>
<svg version="1.1" xmlns="http://www.w3.org/2000/svg" width="16" height="28" viewBox="0 0 77.000000 28.000000">
<path d="M0 0 C1.63001953 0.02707031 1.63001953 0.02707031 3.29296875 0.0546875 C4.54013672 0.08949219 4.54013672 0.08949219 5.8125 0.125 C5.8125 2.765 5.8125 5.405 5.8125 8.125 C4.8225 7.795 3.8325 7.465 2.8125 7.125 C2.3175 5.64 2.3175 5.64 1.8125 4.125 C-1.77077753 3.12282936 -1.77077753 3.12282936 -5.1875 4.125 C-5.1875 5.445 -5.1875 6.765 -5.1875 8.125 C2.4025 8.455 9.9925 8.785 17.8125 9.125 C17.8125 7.475 17.8125 5.825 17.8125 4.125 C23.7525 4.125 29.6925 4.125 35.8125 4.125 C35.8125 10.725 35.8125 17.325 35.8125 24.125 C29.8725 24.125 23.9325 24.125 17.8125 24.125 C17.8125 22.145 17.8125 20.165 17.8125 18.125 C14.1825 18.125 10.5525 18.125 6.8125 18.125 C6.9671875 19.48625 6.9671875 19.48625 7.125 20.875 C6.8125 24.125 6.8125 24.125 4.71875 26.3125 C1.17719848 28.52120955 -0.86655134 28.54200803 -5 28.375 C-6.16144531 28.33890625 -7.32289062 28.3028125 -8.51953125 28.265625 C-9.39996094 28.21921875 -10.28039062 28.1728125 -11.1875 28.125 C-11.1875 25.155 -11.1875 22.185 -11.1875 19.125 C-10.1975 19.125 -9.2075 19.125 -8.1875 19.125 C-7.713125 19.929375 -7.23875 20.73375 -6.75 21.5625 C-5.44877084 24.22700531 -5.44877084 24.22700531 -3.1875 25.0625 C-0.86435348 25.32876008 -0.86435348 25.32876008 1.8125 23.125 C1.8125 21.805 1.8125 20.485 1.8125 19.125 C-6.1075 18.795 -14.0275 18.465 -22.1875 18.125 C-22.1875 20.105 -22.1875 22.085 -22.1875 24.125 C-28.1275 24.125 -34.0675 24.125 -40.1875 24.125 C-40.1875 17.195 -40.1875 10.265 -40.1875 3.125 C-34.2475 3.125 -28.3075 3.125 -22.1875 3.125 C-22.1875 5.105 -22.1875 7.085 -22.1875 9.125 C-18.2275 9.125 -14.2675 9.125 -10.1875 9.125 C-10.084375 8.01125 -9.98125 6.8975 -9.875 5.75 C-9.648125 4.55375 -9.42125 3.3575 -9.1875 2.125 C-5.66070901 -0.22619399 -4.15870515 -0.08943452 0 0 Z " fill="#224F36" transform="translate(41.1875,-0.125)"/>
<path d="M0 0 C5.94 0 11.88 0 18 0 C18 6.6 18 13.2 18 20 C12.06 20 6.12 20 0 20 C0 18.02 0 16.04 0 14 C-1.08667969 14.08701172 -1.08667969 14.08701172 -2.1953125 14.17578125 C-11.07268764 14.59005876 -11.07268764 14.59005876 -14.375 11.6875 C-15.24125 10.800625 -16.1075 9.91375 -17 9 C-18.66026356 7.98940479 -20.32470102 6.98546999 -22 6 C-22 5.67 -22 5.34 -22 5 C-14.74 5 -7.48 5 0 5 C0 3.35 0 1.7 0 0 Z " fill="#224F36" transform="translate(59,4)"/>
<path d="M0 0 C1.07765625 0.03609375 2.1553125 0.0721875 3.265625 0.109375 C4.49539062 0.17898438 4.49539062 0.17898438 5.75 0.25 C5.75 2.89 5.75 5.53 5.75 8.25 C4.76 7.92 3.77 7.59 2.75 7.25 C2.42 6.26 2.09 5.27 1.75 4.25 C-1.83327753 3.24782936 -1.83327753 3.24782936 -5.25 4.25 C-4.94220428 7.43055573 -4.71477873 8.84707049 -2.25390625 10.98046875 C-1.44824219 11.46128906 -0.64257812 11.94210937 0.1875 12.4375 C2.67595189 13.95134152 4.68497891 15.18497891 6.75 17.25 C7.1875 20.625 7.1875 20.625 6.75 24.25 C3.99924103 27.14392115 2.41434771 28.17211633 -1.58203125 28.640625 C-2.73058594 28.59421875 -3.87914062 28.5478125 -5.0625 28.5 C-6.22394531 28.46390625 -7.38539062 28.4278125 -8.58203125 28.390625 C-9.46246094 28.34421875 -10.34289062 28.2978125 -11.25 28.25 C-11.25 25.28 -11.25 22.31 -11.25 19.25 C-10.26 19.25 -9.27 19.25 -8.25 19.25 C-7.775625 20.054375 -7.30125 20.85875 -6.8125 21.6875 C-5.51127084 24.35200531 -5.51127084 24.35200531 -3.25 25.1875 C-0.92685348 25.45376008 -0.92685348 25.45376008 1.75 23.25 C1.44220428 20.06944427 1.21477873 18.65292951 -1.24609375 16.51953125 C-2.05175781 16.03871094 -2.85742188 15.55789063 -3.6875 15.0625 C-6.17595189 13.54865848 -8.18497891 12.31502109 -10.25 10.25 C-10.70992944 6.72387427 -10.78027414 4.95787792 -8.6171875 2.0703125 C-5.55543556 -0.28410401 -3.81365798 -0.16581122 0 0 Z " fill="#000100" transform="translate(41.25,-0.25)"/>
</svg>
