<?xml version="1.0" standalone="no"?>
<!DOCTYPE svg PUBLIC "-//W3C//DTD SVG 20010904//EN"
 "http://www.w3.org/TR/2001/REC-SVG-20010904/DTD/svg10.dtd">
<svg version="1.0" xmlns="http://www.w3.org/2000/svg"
 width="16.000000pt" height="48.000000pt" viewBox="0 0 82.000000 48.000000"
 preserveAspectRatio="xMidYMid meet">

<g transform="translate(0.000000,48.000000) scale(0.100000,-0.100000)"
fill="#000000" stroke="none">
<path d="M10 245 l0 -235 405 0 405 0 0 235 0 235 -405 0 -405 0 0 -235z m740
-5 l0 -170 -335 0 -335 0 0 170 0 170 335 0 335 0 0 -170z" fill="#235037"/>
<path d="M191 247 c-28 -83 -51 -155 -51 -160 0 -4 9 -7 19 -7 13 0 23 11 31
35 11 35 12 35 70 35 58 0 59 0 70 -35 8 -24 18 -35 31 -35 10 0 19 3 19 8 0
4 -23 76 -52 160 -40 116 -56 152 -69 152 -13 0 -29 -36 -68 -153z m93 19 c23
-72 22 -76 -24 -76 -22 0 -40 5 -40 10 0 26 34 130 40 123 4 -4 15 -30 24 -57z"/>
<path d="M510 240 l0 -160 95 0 c88 0 95 1 95 20 0 18 -7 20 -70 20 l-70 0 0
140 0 140 -25 0 -25 0 0 -160z"/>
<path d="M410 135 c0 -31 3 -35 25 -35 22 0 25 4 25 35 0 31 -3 35 -25 35 -22
0 -25 -4 -25 -35z"/>
</g>
</svg>
