<?xml version="1.0" standalone="no"?>
<!DOCTYPE svg PUBLIC "-//W3C//DTD SVG 20010904//EN"
 "http://www.w3.org/TR/2001/REC-SVG-20010904/DTD/svg10.dtd">
<svg version="1.0" xmlns="http://www.w3.org/2000/svg"
 width="16.000000pt" height="48.000000pt" viewBox="0 0 82.000000 48.000000"
 preserveAspectRatio="xMidYMid meet">

<g transform="translate(0.000000,48.000000) scale(0.100000,-0.100000)"
fill="#000000" stroke="none">
<path d="M10 245 l0 -235 405 0 405 0 0 235 0 235 -405 0 -405 0 0 -235z m740
-5 l0 -170 -335 0 -335 0 0 170 0 170 335 0 335 0 0 -170z" fill="#235037"/>
<path d="M210 382 c-42 -20 -59 -60 -42 -96 7 -15 35 -37 71 -56 81 -40 97
-94 36 -122 -34 -15 -73 3 -88 42 -17 44 -27 37 -27 -20 l0 -50 55 0 c87 0
135 34 135 93 0 35 -27 64 -90 95 -43 22 -56 33 -58 54 -2 20 4 31 23 44 32
21 69 8 87 -31 17 -38 28 -30 28 20 l0 45 -47 0 c-27 0 -64 -8 -83 -18z"/>
<path d="M490 240 l0 -160 90 0 c83 0 90 1 90 20 0 18 -7 20 -70 20 l-70 0 0
140 c0 133 -1 140 -20 140 -19 0 -20 -7 -20 -160z"/>
<path d="M390 135 c0 -31 3 -35 25 -35 22 0 25 4 25 35 0 31 -3 35 -25 35 -22
0 -25 -4 -25 -35z"/>
</g>
</svg>
